<svg xmlns="http://www.w3.org/2000/svg" xmlns:xlink="http://www.w3.org/1999/xlink" viewBox="0 0 145.09 176.23"><defs><style>.cls-1{fill:none;}.cls-2{isolation:isolate;}.cls-3{clip-path:url(#clip-path);}.cls-4{fill:#ff7a7d;}.Graphic-Style{fill:#c8c8c8;}.Graphic-Style,.cls-12,.cls-6{mix-blend-mode:multiply;}.cls-12,.cls-5,.cls-6{fill:#f7cdb9;}.cls-7{fill:#fff;}.cls-8{fill:#e6e7e8;}.cls-9{fill:#0c6a93;}.cls-10{fill:#4f4c4d;}.cls-11{fill:#383643;}.cls-12{opacity:0.8;}.cls-13{fill:#332924;}.cls-14{fill:#f05d44;}</style><clipPath id="clip-path" transform="translate(0.07 -36.13)"><path class="cls-1" d="M121.29,85.1a56.52,56.52,0,1,0-97.49,0,72.55,72.55,0,1,0,97.49,0Z"/></clipPath></defs><g class="cls-2"><g id="Livello_2" data-name="Livello 2"><g id="people"><g id="man"><g class="cls-3"><circle class="cls-4" cx="72.55" cy="102.65" r="72.55"/><path class="Graphic-Style" d="M26.84,161.83c-.06,0-.95-.9,1.3-3.41,5.4-6,7.91-7.42,11.89-10.59l0,0s.12,6.59.35,15.55h-.35L40,161.88C35.23,162.26,28,162.8,26.84,161.83Zm95.61,0c-1.19,1-8.39.43-13.12,0l-.11,1.54h-.49c-.14-.21-.3-.41-.47-.62.22-8.65.34-14.93.34-14.93l.34-.28c4.24,3.44,6.55,4.55,12.21,10.84C123.4,160.93,122.51,161.79,122.45,161.83Z" transform="translate(0.07 -36.13)"/><g id="man-2" data-name="man"><polygon class="cls-5" points="85.53 75.66 82.39 74.21 82.39 64.22 62.23 64.22 62.23 74.21 59.08 75.57 59.92 103.89 62.23 103.89 62.23 108.23 82.39 108.23 82.39 103.89 84.69 103.89 85.53 75.66"/><polygon class="cls-6" points="82.39 65.24 82.39 73.36 62.23 69.13 62.23 65.24 82.39 65.24"/><path class="cls-7" d="M115.17,126.93c-3.7-8.05-14.07-10.05-28.94-15.16l-1.6-.56s0,.05,0,.08c-1,5.54-3.76,12.7-12.38,13.54-8.61-.84-11.39-8-12.37-13.54,0,0,0-.06,0-.08l-1.6.56C43.37,116.88,33,118.88,29.3,126.93,24.67,137.19,38,147.86,38,147.86s1.2,64.5,3.21,64.5h62.11c2,0,3.21-64.5,3.21-64.5S119.8,137.19,115.17,126.93Z" transform="translate(0.07 -36.13)"/><path class="cls-8" d="M72.23,119.1,66,125.62,54,113.24l8.08-3.56,2.48,2.3Z" transform="translate(0.07 -36.13)"/><path class="cls-8" d="M72.23,119.1l6.2,6.52,12.06-12.38-8.07-3.56L79.93,112Z" transform="translate(0.07 -36.13)"/><polygon class="cls-9" points="77.4 87.6 75.46 91.31 69.57 91.31 67.69 87.6 72.55 83.64 77.4 87.6"/><polygon class="cls-9" points="75.46 92.19 77.86 169.37 72.55 175.25 67.23 169.37 69.57 92.19 75.46 92.19"/><path class="cls-10" d="M92.7,181.85H52.44A5.88,5.88,0,0,1,46.56,176L44,142.37a5.88,5.88,0,0,1,5.88-5.88h45.3a5.88,5.88,0,0,1,5.88,5.88L98.58,176A5.88,5.88,0,0,1,92.7,181.85Z" transform="translate(0.07 -36.13)"/><path class="Graphic-Style" d="M95.32,136.49H49.82a5.77,5.77,0,0,0-4.82,2.6,5.72,5.72,0,0,1,3.17-1h45.5a5.77,5.77,0,0,1,5.78,5.77l-2.52,33.82a5.74,5.74,0,0,1-1,3.17,5.78,5.78,0,0,0,2.6-4.82l2.52-33.82A5.77,5.77,0,0,0,95.32,136.49Z" transform="translate(0.07 -36.13)"/><rect class="cls-11" x="48.79" y="120.57" width="4.95" height="4.95" rx="2.36"/><path class="cls-5" d="M48.26,162.59s-3.95.44-7,.67l-2.24.13-1.93.06H35.2L34.9,176h2.33l2.33-.07,2.62-.16c3.52-.26,7.75-.74,7.75-.74,2.71-.36,4.38-3.52,3.81-6.94S50.7,162.27,48.26,162.59Z" transform="translate(0.07 -36.13)"/><path class="cls-5" d="M44.07,159.33a7.88,7.88,0,0,0-4.92,3.18,19.33,19.33,0,0,0-2,3,2.62,2.62,0,0,0,.32,2.93,1.29,1.29,0,0,0,2.16-.45s.16-.29.41-.69a12.52,12.52,0,0,1,1-1.47,5.65,5.65,0,0,1,3.48-2.34c.82-.1,1.37-1.1,1.23-2.26S44.85,159.24,44.07,159.33Z" transform="translate(0.07 -36.13)"/><path class="cls-7" d="M36.78,178.85c-5.17,0-19.75.78-24.11-2.77-3.06-2.5-8.4-10.61-1.67-24.32A106.6,106.6,0,0,1,33.21,122l10.13,21.15c-7.93,7.48-9.85,7-17.3,15.29-2.25,2.51-1.36,3.37-1.3,3.41,1.19,1,8.39.43,13.12,0l1.21,16.76A14,14,0,0,1,36.78,178.85Z" transform="translate(0.07 -36.13)"/><path class="cls-5" d="M96.83,162.59s4,.44,7,.67l2.24.13,1.93.06h1.86l.3,12.6h-2.33l-2.33-.07-2.62-.16c-3.52-.26-7.75-.74-7.75-.74-2.71-.36-4.38-3.52-3.81-6.94S94.39,162.27,96.83,162.59Z" transform="translate(0.07 -36.13)"/><path class="cls-5" d="M101,159.33a7.88,7.88,0,0,1,4.92,3.18,19.33,19.33,0,0,1,2,3,2.62,2.62,0,0,1-.32,2.93,1.29,1.29,0,0,1-2.16-.45s-.16-.29-.41-.69a12.52,12.52,0,0,0-1-1.47,5.65,5.65,0,0,0-3.48-2.34c-.82-.1-1.37-1.1-1.23-2.26S100.24,159.24,101,159.33Z" transform="translate(0.07 -36.13)"/><path class="cls-7" d="M108.31,178.85c5.17,0,19.75.78,24.11-2.77,3.06-2.5,8.41-10.61,1.67-24.32A103.12,103.12,0,0,0,112,122.59L102,143.37c7.93,7.48,9.56,6.76,17,15,2.25,2.51,1.36,3.37,1.3,3.41-1.19,1-8.39.43-13.11,0L106,178.64A14,14,0,0,0,108.31,178.85Z" transform="translate(0.07 -36.13)"/><path class="cls-5" d="M94.23,71.92l.68-8.87c0-11.6-11.08-21-22.68-21s-22.68,9.4-22.68,21l.69,8.87a4.05,4.05,0,0,0-1.73.87A4.16,4.16,0,0,0,47,76v4.37a4.19,4.19,0,0,0,4.18,4.19c0,11,13.16,21.34,21,21.34s21-10.38,21-21.33a4.2,4.2,0,0,0,4.17-4.2V76A4.2,4.2,0,0,0,94.23,71.92Z" transform="translate(0.07 -36.13)"/><path class="cls-12" d="M94.86,71.73l.69-8.87c0-11.6-11.09-21-22.68-21v31.5c-3.06,6.52-5,16-5,16h5V105.7c7.87,0,21-10.38,21-21.34a4.19,4.19,0,0,0,4.17-4.19V75.8A4.18,4.18,0,0,0,94.86,71.73Z" transform="translate(0.07 -36.13)"/><path class="cls-6" d="M65.89,76a3.32,3.32,0,1,1-3.44-3.2A3.33,3.33,0,0,1,65.89,76Z" transform="translate(0.07 -36.13)"/><path class="cls-13" d="M65.89,75.13a3.32,3.32,0,1,1-3.44-3.2A3.33,3.33,0,0,1,65.89,75.13Z" transform="translate(0.07 -36.13)"/><path class="cls-7" d="M64.53,75.87a.83.83,0,0,1-.8.85.83.83,0,1,1-.06-1.65A.83.83,0,0,1,64.53,75.87Z" transform="translate(0.07 -36.13)"/><path class="cls-6" d="M85.21,76a3.32,3.32,0,1,1-3.44-3.2A3.33,3.33,0,0,1,85.21,76Z" transform="translate(0.07 -36.13)"/><path class="cls-13" d="M85.21,75.13a3.32,3.32,0,1,1-3.44-3.2A3.33,3.33,0,0,1,85.21,75.13Z" transform="translate(0.07 -36.13)"/><circle class="cls-7" cx="83.02" cy="75.89" r="0.83" transform="translate(-21.44 81.3) rotate(-64.1)"/></g></g><path class="cls-14" d="M79.27,94.25c0,3.3-3,6-6.72,6s-6.72-2.68-6.72-6Z" transform="translate(0.07 -36.13)"/><path class="cls-7" d="M66.95,58.13h11.2a0,0,0,0,1,0,0v1.24a1,1,0,0,1-1,1h-9.2a1,1,0,0,1-1-1V58.13A0,0,0,0,1,66.95,58.13Z"/><path d="M96,75.75c-.79,2.9-1.75,4.1-3,6.93,0,0,.21-8.13.21-8.13L89,60.13a108.92,108.92,0,0,1-16.29,1.41A108.86,108.86,0,0,1,56.59,59L51.32,73.09S51,81.24,51,81.21c-.49-1.41-2.17-5.6-2.46-7.11-1.84-9.23-1.43-18.27,1.81-25.23,0,0,5.6-13.35,23.24-12.72l1.07,0A24.1,24.1,0,0,1,86,39.06s5.19,2.75,9.63.8a.2.2,0,0,1,.28.21,6,6,0,0,1-1.28,2.86,15.48,15.48,0,0,0,3.91-.21h.05v.06a13.3,13.3,0,0,1-2.62,7.69C98.67,57.63,98.45,66.68,96,75.75Z" transform="translate(0.07 -36.13)"/></g></g></g></g></svg>